<?xml version="1.0" encoding="UTF-8" standalone="no"?>
<svg
   id="Bun"
   viewBox="0 0 400 140"
   version="1.1"
   sodipodi:docname="bun_vite.svg"
   width="400"
   height="140"
   inkscape:version="1.3.2 (091e20ef0f, 2023-11-25, custom)"
   xmlns:inkscape="http://www.inkscape.org/namespaces/inkscape"
   xmlns:sodipodi="http://sodipodi.sourceforge.net/DTD/sodipodi-0.dtd"
   xmlns="http://www.w3.org/2000/svg"
   xmlns:svg="http://www.w3.org/2000/svg"
   xmlns:rdf="http://www.w3.org/1999/02/22-rdf-syntax-ns#"
   xmlns:cc="http://creativecommons.org/ns#"
   xmlns:dc="http://purl.org/dc/elements/1.1/">
  <defs
     id="defs1">
    <linearGradient
       id="paint0_linear"
       x1="6.0001702"
       y1="32.999901"
       x2="235"
       y2="344"
       gradientUnits="userSpaceOnUse">
      <stop
         stop-color="#41D1FF"
         id="stop2" />
      <stop
         offset="1"
         stop-color="#BD34FE"
         id="stop3" />
    </linearGradient>
    <linearGradient
       id="paint1_linear"
       x1="194.651"
       y1="8.8181801"
       x2="236.076"
       y2="292.98901"
       gradientUnits="userSpaceOnUse">
      <stop
         stop-color="#FFEA83"
         id="stop4" />
      <stop
         offset="0.0833333"
         stop-color="#FFDD35"
         id="stop5" />
      <stop
         offset="1"
         stop-color="#FFA800"
         id="stop6" />
    </linearGradient>
  </defs>
  <sodipodi:namedview
     id="namedview1"
     pagecolor="#ffffff"
     bordercolor="#000000"
     borderopacity="0.25"
     inkscape:showpageshadow="2"
     inkscape:pageopacity="0.0"
     inkscape:pagecheckerboard="0"
     inkscape:deskcolor="#d1d1d1"
     inkscape:zoom="1"
     inkscape:cx="-5.5"
     inkscape:cy="258"
     inkscape:window-width="2560"
     inkscape:window-height="1376"
     inkscape:window-x="0"
     inkscape:window-y="0"
     inkscape:window-maximized="1"
     inkscape:current-layer="Bun" />
  <title
     id="title1">Bun Logo</title>
  <g
     id="g1"
     transform="matrix(0.99054916,0,0,0.99054916,0,-24.763728)">
    <g
       id="Body"
       transform="matrix(2.166065,0,0,2.166065,-1.0830325,23.916967)">
      <path
         id="Background"
         d="M 73,35.7 C 73,50.91 57.33,63.24 38,63.24 18.67,63.24 3,50.91 3,35.7 3,26.27 9,17.94 18.22,13 27.44,8.06 33.18,3 38,3 42.82,3 46.94,7.13 57.78,13 67,17.94 73,26.27 73,35.7 Z"
         style="fill:#fbf0df" />
      <path
         id="Bottom_Shadow"
         data-name="Bottom Shadow"
         d="M 73,35.7 A 21.67,21.67 0 0 0 72.2,29.92 C 69.47,63.22 28.85,64.82 12.88,54.86 A 40,40 0 0 0 38,63.24 c 19.3,0 35,-12.35 35,-27.54 z"
         style="fill:#f6dece" />
      <path
         id="Light_Shine"
         data-name="Light Shine"
         d="M 24.53,11.17 C 29,8.49 34.94,3.46 40.78,3.45 A 9.29,9.29 0 0 0 38,3 c -2.42,0 -5,1.25 -8.25,3.13 -1.13,0.66 -2.3,1.39 -3.54,2.15 -2.33,1.44 -5,3.07 -8,4.7 C 8.69,18.13 3,26.62 3,35.7 3,36.1 3,36.5 3,36.89 9.06,15.48 20.07,13.85 24.53,11.17 Z"
         style="fill:#fffefc" />
      <path
         id="Top"
         d="M 35.12,5.53 A 16.41,16.41 0 0 1 29.49,18 c -0.28,0.25 -0.06,0.73 0.3,0.59 3.37,-1.31 7.92,-5.23 6,-13.14 C 35.71,5 35.12,5.12 35.12,5.53 Z m 2.27,0 A 16.24,16.24 0 0 1 39,19 c -0.12,0.35 0.31,0.65 0.55,0.36 C 41.74,16.56 43.65,11 37.93,5 37.64,4.74 37.19,5.14 37.39,5.49 Z M 40.15,5.36 A 16.42,16.42 0 0 1 47,17.12 0.33,0.33 0 0 0 47.65,17.23 C 48.57,13.74 48.05,7.79 40.48,4.7 40.08,4.54 39.82,5.08 40.15,5.32 Z m -18.46,10.4 a 16.94,16.94 0 0 0 10.47,-9 c 0.18,-0.36 0.75,-0.22 0.66,0.18 -1.73,8 -7.52,9.67 -11.12,9.45 -0.38,0.01 -0.37,-0.52 -0.01,-0.63 z"
         style="fill:#ccbea7;fill-rule:evenodd" />
      <path
         id="Outline"
         d="M 38,65.75 C 17.32,65.75 0.5,52.27 0.5,35.7 c 0,-10 6.18,-19.33 16.53,-24.92 3,-1.6 5.57,-3.21 7.86,-4.62 1.26,-0.78 2.45,-1.51 3.6,-2.19 C 32,1.89 35,0.5 38,0.5 c 3,0 5.62,1.2 8.9,3.14 1,0.57 2,1.19 3.07,1.87 2.49,1.54 5.3,3.28 9,5.27 C 69.32,16.37 75.5,25.69 75.5,35.7 75.5,52.27 58.68,65.75 38,65.75 Z M 38,3 c -2.42,0 -5,1.25 -8.25,3.13 -1.13,0.66 -2.3,1.39 -3.54,2.15 -2.33,1.44 -5,3.07 -8,4.7 C 8.69,18.13 3,26.62 3,35.7 3,50.89 18.7,63.25 38,63.25 57.3,63.25 73,50.89 73,35.7 73,26.62 67.31,18.13 57.78,13 54,11 51.05,9.12 48.66,7.64 47.57,6.97 46.57,6.35 45.66,5.8 42.63,4 40.42,3 38,3 Z" />
    </g>
    <g
       id="Mouth"
       transform="matrix(2.166065,0,0,2.166065,-1.0830325,23.916967)">
      <g
         id="Background-2"
         data-name="Background">
        <path
           d="m 45.05,43 a 8.93,8.93 0 0 1 -2.92,4.71 6.81,6.81 0 0 1 -4,1.88 A 6.84,6.84 0 0 1 34,47.71 8.93,8.93 0 0 1 31.12,43 0.72,0.72 0 0 1 31.92,42.19 H 44.26 A 0.72,0.72 0 0 1 45.05,43 Z"
           style="fill:#b71422"
           id="path1" />
      </g>
      <g
         id="Tongue">
        <path
           id="Background-3"
           data-name="Background"
           d="m 34,47.79 a 6.91,6.91 0 0 0 4.12,1.9 6.91,6.91 0 0 0 4.11,-1.9 10.63,10.63 0 0 0 1,-1.07 6.83,6.83 0 0 0 -4.9,-2.31 6.15,6.15 0 0 0 -5,2.78 c 0.23,0.21 0.43,0.41 0.67,0.6 z"
           style="fill:#ff6164" />
        <path
           id="Outline-2"
           data-name="Outline"
           d="m 34.16,47 a 5.36,5.36 0 0 1 4.19,-2.08 6,6 0 0 1 4,1.69 c 0.23,-0.25 0.45,-0.51 0.66,-0.77 A 7,7 0 0 0 38.3,43.91 6.36,6.36 0 0 0 33.41,46.27 9.53,9.53 0 0 0 34.16,47 Z" />
      </g>
      <path
         id="Outline-3"
         data-name="Outline"
         d="m 38.09,50.19 a 7.42,7.42 0 0 1 -4.45,-2 9.52,9.52 0 0 1 -3.11,-5.05 1.2,1.2 0 0 1 0.26,-1 1.41,1.41 0 0 1 1.13,-0.51 h 12.34 a 1.44,1.44 0 0 1 1.13,0.51 1.19,1.19 0 0 1 0.25,1 v 0 a 9.52,9.52 0 0 1 -3.11,5.05 7.42,7.42 0 0 1 -4.44,2 z m -6.17,-7.4 c -0.16,0 -0.2,0.07 -0.21,0.09 a 8.29,8.29 0 0 0 2.73,4.37 6.23,6.23 0 0 0 3.65,1.75 6.28,6.28 0 0 0 3.65,-1.73 8.3,8.3 0 0 0 2.72,-4.37 0.21,0.21 0 0 0 -0.2,-0.09 z" />
    </g>
    <g
       id="Face"
       transform="matrix(2.166065,0,0,2.166065,-1.0830325,23.916967)">
      <ellipse
         id="Right_Blush"
         data-name="Right Blush"
         cx="53.220001"
         cy="40.18"
         rx="5.8499999"
         ry="3.4400001"
         style="fill:#febbd0" />
      <ellipse
         id="Left_Bluch"
         data-name="Left Bluch"
         cx="22.950001"
         cy="40.18"
         rx="5.8499999"
         ry="3.4400001"
         style="fill:#febbd0" />
      <path
         id="Eyes"
         d="m 25.7,38.8 a 5.51,5.51 0 1 0 -5.5,-5.51 5.51,5.51 0 0 0 5.5,5.51 z m 24.77,0 A 5.51,5.51 0 1 0 45,33.29 5.5,5.5 0 0 0 50.47,38.8 Z"
         style="fill-rule:evenodd" />
      <path
         id="Iris"
         d="M 24,33.64 A 2.07,2.07 0 1 0 21.94,31.57 2.07,2.07 0 0 0 24,33.64 Z m 24.77,0 a 2.07,2.07 0 1 0 -2.06,-2.07 2.07,2.07 0 0 0 2.04,2.07 z"
         style="fill:#ffffff;fill-rule:evenodd" />
    </g>
  </g>
  <g
     id="g6"
     transform="matrix(0.35697337,0,0,0.35697337,256.87613,-0.52755197)">
    <path
       d="M 399.641,59.5246 215.643,388.545 c -3.799,6.793 -13.559,6.833 -17.415,0.073 L 10.5817,59.5563 C 6.38087,52.1896 12.6802,43.2665 21.0281,44.7586 L 205.223,77.6824 c 1.175,0.21 2.378,0.208 3.553,-0.0061 L 389.119,44.8058 c 8.32,-1.5164 14.649,7.3376 10.522,14.7188 z"
       fill="url(#paint0_linear)"
       id="path1-7"
       style="fill:url(#paint0_linear)" />
    <path
       d="M 292.965,1.5744 156.801,28.2552 c -2.238,0.4385 -3.895,2.3351 -4.03,4.6112 L 144.395,174.33 c -0.197,3.332 2.863,5.918 6.115,5.168 l 37.91,-8.749 c 3.547,-0.818 6.752,2.306 6.023,5.873 l -11.263,55.153 c -0.758,3.712 2.727,6.886 6.352,5.785 l 23.415,-7.114 c 3.63,-1.102 7.118,2.081 6.35,5.796 l -17.899,86.633 c -1.12,5.419 6.088,8.374 9.094,3.728 L 212.5,323.5 323.454,102.072 c 1.858,-3.7075 -1.346,-7.935 -5.418,-7.1492 l -39.022,7.5312 c -3.667,0.707 -6.787,-2.708 -5.752,-6.2957 L 298.731,7.86689 c 1.036,-3.59375 -2.095,-7.011709 -5.766,-6.29249 z"
       fill="url(#paint1_linear)"
       id="path2"
       style="fill:url(#paint1_linear)" />
  </g>
  <metadata
     id="metadata1">
    <rdf:RDF>
      <cc:Work
         rdf:about="">
        <dc:title>Bun Logo</dc:title>
      </cc:Work>
    </rdf:RDF>
  </metadata>
  <text
     xml:space="preserve"
     style="font-style:normal;font-variant:normal;font-weight:normal;font-stretch:normal;font-size:120px;font-family:Sans;-inkscape-font-specification:'Sans, Normal';font-variant-ligatures:normal;font-variant-caps:normal;font-variant-numeric:normal;font-variant-east-asian:normal;opacity:1;fill:#6ee39a;fill-opacity:1"
     x="179.74001"
     y="112.42"
     id="text1"><tspan
       sodipodi:role="line"
       id="tspan1"
       x="179.74001"
       y="112.42"
       style="font-style:normal;font-variant:normal;font-weight:bold;font-stretch:normal;font-size:120px;font-family:Sans;-inkscape-font-specification:'Sans, Bold';font-variant-ligatures:normal;font-variant-caps:normal;font-variant-numeric:normal;font-variant-east-asian:normal;fill:#6ee39a;fill-opacity:1">+</tspan></text>
</svg>
